<svg data-v-423bf9ae="" xmlns="http://www.w3.org/2000/svg" viewBox="0 0 420.4638275274247 60" class="font"><!----><!----><!----><g data-v-423bf9ae="" id="7fa6aeeb-b55b-407a-9dc2-ea3858feacdb" fill="black" transform="matrix(4.21644426775369,0,0,4.21644426775369,-1.7709002438334949,-21.71468790420581)"><path d="M5.45 8.11L5.45 8.11Q7.13 8.11 8.01 9.05L8.01 9.05L8.01 9.05Q8.89 10.00 8.89 11.61L8.89 11.61L8.89 11.61Q8.89 13.38 7.78 14.88L7.78 14.88L7.78 14.88Q6.66 16.37 4.91 17.26L4.91 17.26L4.91 17.26Q3.15 18.16 1.32 18.27L1.32 18.27L1.32 10.51L2.62 10.04L2.62 17.51L2.62 17.51Q4.00 17.15 5.08 16.33L5.08 16.33L5.08 16.33Q6.16 15.51 6.77 14.35L6.77 14.35L6.77 14.35Q7.38 13.19 7.38 11.84L7.38 11.84L7.38 11.84Q7.38 11.07 7.11 10.42L7.11 10.42L7.11 10.42Q6.85 9.76 6.28 9.34L6.28 9.34L6.28 9.34Q5.71 8.92 4.84 8.92L4.84 8.92L4.84 8.92Q3.74 8.92 2.65 9.35L2.65 9.35L2.65 9.35Q1.57 9.79 0.70 10.51L0.70 10.51L0.42 10.22L0.42 10.22Q1.32 9.34 2.77 8.72L2.77 8.72L2.77 8.72Q4.23 8.11 5.45 8.11L5.45 8.11ZM13.12 10.96L13.37 11.26L13.37 11.26Q12.32 11.93 11.72 12.75L11.72 12.75L11.72 12.75Q11.12 13.58 11.12 14.70L11.12 14.70L11.12 14.70Q11.12 15.33 11.38 15.97L11.38 15.97L11.38 15.97Q11.65 16.60 12.18 17.02L12.18 17.02L12.18 17.02Q12.71 17.44 13.45 17.44L13.45 17.44L13.45 17.44Q14.06 17.44 14.53 17.16L14.53 17.16L14.53 17.16Q14.99 16.88 15.25 16.41L15.25 16.41L15.25 16.41Q15.51 15.93 15.51 15.36L15.51 15.36L15.51 15.36Q15.51 14.70 15.11 14.01L15.11 14.01L15.11 14.01Q14.71 13.33 14.07 12.85L14.07 12.85L14.07 12.85Q13.43 12.38 12.75 12.32L12.75 12.32L12.75 12.32Q13.03 12.04 13.43 11.73L13.43 11.73L13.43 11.73Q13.82 11.42 14.22 11.13L14.22 11.13L14.22 11.13Q15.19 11.45 15.75 12.36L15.75 12.36L15.75 12.36Q16.31 13.26 16.31 14.36L16.31 14.36L16.31 14.36Q16.31 15.34 15.91 16.25L15.91 16.25L15.91 16.25Q15.51 17.15 14.74 17.72L14.74 17.72L14.74 17.72Q13.97 18.28 12.92 18.28L12.92 18.28L12.92 18.28Q12.08 18.28 11.38 17.87L11.38 17.87L11.38 17.87Q10.67 17.46 10.26 16.74L10.26 16.74L10.26 16.74Q9.86 16.03 9.86 15.16L9.86 15.16L9.86 15.16Q9.86 13.64 10.76 12.52L10.76 12.52L10.76 12.52Q11.66 11.40 13.12 10.96L13.12 10.96ZM21.49 11.00L21.49 11.00Q22.06 11.00 22.55 11.33L22.55 11.33L22.55 11.33Q23.04 11.65 23.32 12.35L23.32 12.35L22.18 12.94L22.18 12.94Q22.04 12.45 21.62 12.17L21.62 12.17L21.62 12.17Q21.21 11.89 20.75 11.89L20.75 11.89L20.75 11.89Q20.08 11.89 19.56 12.24L19.56 12.24L19.56 12.24Q19.04 12.59 18.76 13.13L18.76 13.13L18.76 13.13Q18.48 13.68 18.48 14.24L18.48 14.24L18.48 14.24Q18.48 15.22 18.80 15.93L18.80 15.93L18.80 15.93Q19.12 16.63 19.68 17.00L19.68 17.00L19.68 17.00Q20.24 17.37 20.94 17.37L20.94 17.37L20.94 17.37Q21.78 17.37 22.41 16.96L22.41 16.96L22.41 16.96Q23.04 16.55 23.60 15.90L23.60 15.90L23.84 16.13L23.84 16.13Q23.16 17.18 22.39 17.72L22.39 17.72L22.39 17.72Q21.63 18.26 20.52 18.26L20.52 18.26L20.52 18.26Q19.66 18.26 18.97 17.85L18.97 17.85L18.97 17.85Q18.28 17.44 17.89 16.70L17.89 16.70L17.89 16.70Q17.50 15.95 17.50 14.97L17.50 14.97L17.50 14.97Q17.50 13.87 17.95 12.97L17.95 12.97L17.95 12.97Q18.40 12.07 19.29 11.54L19.29 11.54L19.29 11.54Q20.19 11.00 21.49 11.00L21.49 11.00ZM30.98 10.89L30.98 16.87L30.98 16.87Q30.98 17.08 31.09 17.21L31.09 17.21L31.09 17.21Q31.19 17.35 31.39 17.35L31.39 17.35L31.39 17.35Q31.68 17.35 32.10 16.80L32.10 16.80L32.31 17.01L32.31 17.01Q32.02 17.64 31.61 17.90L31.61 17.90L31.61 17.90Q31.19 18.16 31.19 18.16L31.19 18.16L31.19 18.16Q31.19 18.16 30.83 18.16L30.83 18.16L30.83 18.16Q30.38 18.16 30.15 17.91L30.15 17.91L30.15 17.91Q29.92 17.65 29.82 17.00L29.82 17.00L29.82 17.00Q29.72 16.35 29.72 15.06L29.72 15.06L29.72 15.06Q29.72 14.29 29.74 13.83L29.74 13.83L29.62 13.55L29.58 13.55L29.58 13.55Q29.22 15.27 28.57 16.77L28.57 16.77L28.57 16.77Q27.92 18.26 26.71 18.26L26.71 18.26L26.71 18.26Q26.26 18.26 26.06 18.03L26.06 18.03L26.06 18.03Q25.86 17.81 25.82 17.42L25.82 17.42L25.82 17.42Q25.77 17.04 25.77 16.24L25.77 16.24L25.77 12.29L25.77 12.29Q25.77 12.05 25.67 11.91L25.67 11.91L25.67 11.91Q25.56 11.77 25.38 11.77L25.38 11.77L25.38 11.77Q25.05 11.77 24.63 12.33L24.63 12.33L24.46 12.11L24.46 12.11Q24.68 11.58 25.03 11.32L25.03 11.32L25.03 11.32Q25.37 11.06 25.67 11.00L25.67 11.00L25.67 11.00Q25.97 10.93 25.97 10.98L25.97 10.98L25.97 10.98Q25.96 10.98 25.93 10.98L25.93 10.98L25.93 10.98Q25.90 10.99 25.84 10.99L25.84 10.99L25.84 10.99Q27.05 10.99 27.05 12.38L27.05 12.38L27.05 16.41L27.05 16.41Q27.05 16.72 27.12 16.85L27.12 16.85L27.12 16.85Q27.19 16.98 27.29 16.98L27.29 16.98L27.29 16.98Q27.89 16.98 28.41 15.81L28.41 15.81L28.41 15.81Q28.92 14.63 29.25 13.22L29.25 13.22L29.25 13.22Q29.58 11.80 29.58 11.52L29.58 11.52L30.98 10.89ZM40.80 10.96L40.80 10.96Q41.22 10.96 41.45 11.24L41.45 11.24L41.45 11.24Q41.68 11.51 41.68 12.15L41.68 12.15L41.68 16.91L41.68 16.91Q41.68 17.12 41.78 17.26L41.78 17.26L41.78 17.26Q41.87 17.39 42.04 17.39L42.04 17.39L42.04 17.39Q42.21 17.39 42.41 17.25L42.41 17.25L42.41 17.25Q42.60 17.11 42.78 16.84L42.78 16.84L43.01 17.05L43.01 17.05Q42.71 17.68 42.31 17.93L42.31 17.93L42.31 17.93Q41.90 18.17 42.15 18.17L42.15 18.17L42.15 18.17Q42.41 18.16 41.55 18.16L41.55 18.16L41.55 18.16Q40.39 18.16 40.39 16.74L40.39 16.74L40.39 12.88L40.39 12.88Q40.39 12.74 40.32 12.64L40.32 12.64L40.32 12.64Q40.25 12.54 40.14 12.54L40.14 12.54L40.14 12.54Q39.83 12.54 39.47 13.22L39.47 13.22L39.47 13.22Q39.10 13.89 38.85 15.11L38.85 15.11L38.85 15.11Q38.60 16.34 38.60 17.92L38.60 17.92L37.32 18.28L37.32 12.88L37.32 12.88Q37.32 12.74 37.25 12.64L37.25 12.64L37.25 12.64Q37.18 12.54 37.09 12.54L37.09 12.54L37.09 12.54Q36.81 12.54 36.44 13.22L36.44 13.22L36.44 13.22Q36.06 13.90 35.79 15.13L35.79 15.13L35.79 15.13Q35.52 16.35 35.52 17.92L35.52 17.92L34.31 18.28L34.31 12.29L34.31 12.29Q34.31 12.05 34.20 11.91L34.20 11.91L34.20 11.91Q34.08 11.77 33.89 11.77L33.89 11.77L33.89 11.77Q33.54 11.77 33.18 12.38L33.18 12.38L32.96 12.15L32.96 12.15Q33.25 11.52 33.66 11.25L33.66 11.25L33.66 11.25Q34.06 10.98 34.15 10.97L34.15 10.97L34.15 10.97Q34.24 10.96 34.43 10.96L34.43 10.96L34.43 10.96Q35.10 10.96 35.34 11.25L35.34 11.25L35.34 11.25Q35.57 11.54 35.57 12.01L35.57 12.01L35.57 14.35L35.62 14.35L35.62 14.35Q35.97 12.82 36.56 11.89L36.56 11.89L36.56 11.89Q37.16 10.96 37.74 10.96L37.74 10.96L37.74 10.96Q38.18 10.96 38.40 11.23L38.40 11.23L38.40 11.23Q38.61 11.49 38.61 12.15L38.61 12.15L38.61 14.35L38.70 14.35L38.70 14.35Q39.05 12.82 39.63 11.89L39.63 11.89L39.63 11.89Q40.21 10.96 40.80 10.96L40.80 10.96ZM48.03 10.96L48.03 10.96Q48.79 10.96 49.29 11.37L49.29 11.37L49.29 11.37Q49.80 11.77 49.80 12.57L49.80 12.57L49.80 12.57Q49.80 13.22 49.11 14.01L49.11 14.01L49.11 14.01Q48.41 14.80 47.48 15.46L47.48 15.46L47.48 15.46Q46.55 16.11 45.89 16.38L45.89 16.38L45.89 16.38Q46.24 16.94 46.69 17.16L46.69 17.16L46.69 17.16Q47.14 17.37 47.74 17.37L47.74 17.37L47.74 17.37Q48.41 17.37 49.08 17.03L49.08 17.03L49.08 17.03Q49.74 16.69 50.18 16.14L50.18 16.14L50.34 16.44L50.34 16.44Q49.66 17.32 48.89 17.79L48.89 17.79L48.89 17.79Q48.12 18.26 47.00 18.26L47.00 18.26L47.00 18.26Q46.14 18.26 45.47 17.84L45.47 17.84L45.47 17.84Q44.80 17.42 44.42 16.71L44.42 16.71L44.42 16.71Q44.04 16.00 44.04 15.18L44.04 15.18L44.04 15.18Q44.04 14.14 44.60 13.16L44.60 13.16L44.60 13.16Q45.16 12.18 46.09 11.57L46.09 11.57L46.09 11.57Q47.01 10.96 48.03 10.96L48.03 10.96ZM47.31 11.84L47.31 11.84Q46.69 11.84 46.21 12.24L46.21 12.24L46.21 12.24Q45.72 12.63 45.45 13.24L45.45 13.24L45.45 13.24Q45.18 13.86 45.18 14.52L45.18 14.52L45.18 14.52Q45.18 15.39 45.58 16.00L45.58 16.00L45.58 16.00Q46.17 15.74 46.86 15.20L46.86 15.20L46.86 15.20Q47.54 14.66 48.02 14.03L48.02 14.03L48.02 14.03Q48.50 13.40 48.50 12.88L48.50 12.88L48.50 12.88Q48.50 11.84 47.31 11.84L47.31 11.84ZM56.78 10.96L56.78 10.96Q57.34 10.96 57.51 11.38L57.51 11.38L57.51 11.38Q57.68 11.79 57.68 12.52L57.68 12.52L57.68 12.95L57.68 16.91L57.68 16.91Q57.68 17.07 57.78 17.23L57.78 17.23L57.78 17.23Q57.88 17.39 58.06 17.39L58.06 17.39L58.06 17.39Q58.30 17.39 58.46 17.23L58.46 17.23L58.46 17.23Q58.63 17.08 58.80 16.84L58.80 16.84L59.01 17.05L59.01 17.05Q58.80 17.50 58.38 17.83L58.38 17.83L58.38 17.83Q57.96 18.16 57.58 18.16L57.58 18.16L57.58 18.16Q57.02 18.16 56.71 17.81L56.71 17.81L56.71 17.81Q56.41 17.46 56.41 16.74L56.41 16.74L56.41 13.03L56.41 13.03Q56.41 12.82 56.36 12.68L56.36 12.68L56.36 12.68Q56.32 12.54 56.15 12.54L56.15 12.54L56.15 12.54Q55.58 12.54 54.98 13.65L54.98 13.65L54.98 13.65Q54.38 14.76 53.95 16.12L53.95 16.12L53.95 16.12Q53.52 17.49 53.52 17.92L53.52 17.92L52.30 18.28L52.30 12.29L52.30 12.29Q52.30 12.10 52.20 11.94L52.20 11.94L52.20 11.94Q52.09 11.77 51.90 11.77L51.90 11.77L51.90 11.77Q51.56 11.77 51.17 12.38L51.17 12.38L50.96 12.15L50.96 12.15Q51.14 11.65 51.56 11.30L51.56 11.30L51.56 11.30Q51.98 10.96 52.40 10.96L52.40 10.96L52.40 10.96Q52.99 10.96 53.28 11.24L53.28 11.24L53.28 11.24Q53.56 11.52 53.56 12.01L53.56 12.01L53.56 15.69L53.62 15.69L53.62 15.69Q54.00 14.45 54.35 13.52L54.35 13.52L54.35 13.52Q54.70 12.60 55.33 11.78L55.33 11.78L55.33 11.78Q55.96 10.96 56.78 10.96L56.78 10.96ZM61.94 7.36L61.94 11.09L63.88 11.09L63.46 11.98L61.94 11.98L61.94 16.91L61.94 16.91Q61.94 17.12 62.06 17.26L62.06 17.26L62.06 17.26Q62.19 17.39 62.40 17.39L62.40 17.39L62.40 17.39Q62.69 17.39 63.21 16.84L63.21 16.84L63.41 17.05L63.41 17.05Q63.14 17.58 62.77 17.84L62.77 17.84L62.77 17.84Q62.40 18.10 62.07 18.17L62.07 18.17L62.07 18.17Q61.74 18.23 61.74 18.17L61.74 18.17L61.74 18.17Q61.75 18.17 61.78 18.17L61.78 18.17L61.78 18.17Q61.81 18.16 61.87 18.16L61.87 18.16L61.87 18.16Q60.63 18.16 60.63 16.74L60.63 16.74L60.63 11.98L59.58 11.98L60.02 11.09L60.63 11.09L60.63 7.87L61.94 7.36ZM71.46 9.52L71.46 9.52Q71.16 9.87 71.04 10.18L71.04 10.18L71.04 10.18Q70.91 10.49 70.91 10.91L70.91 10.91L70.91 12.94L72.03 12.94L72.03 12.94Q72.77 12.94 73.21 12.78L73.21 12.78L73.21 12.78Q73.65 12.61 74.03 12.33L74.03 12.33L74.24 12.54L74.24 12.54Q73.43 13.75 71.74 13.75L71.74 13.75L70.91 13.75L70.91 16.48L70.91 16.48Q70.91 17.54 70.57 18.17L70.57 18.17L70.57 18.17Q70.24 18.80 69.50 19.38L69.50 19.38L69.20 19.08L69.20 19.08Q69.41 18.86 69.51 18.47L69.51 18.47L69.51 18.47Q69.61 18.09 69.61 17.72L69.61 17.72L69.61 13.75L68.18 13.75L68.81 12.94L69.61 12.94L69.61 11.72L69.61 11.72Q69.61 11.12 69.96 10.55L69.96 10.55L69.96 10.55Q70.31 9.98 70.81 9.52L70.81 9.52L68.88 9.51L68.88 9.51Q68.35 9.51 67.96 9.70L67.96 9.70L67.96 9.70Q67.56 9.88 67.20 10.29L67.20 10.29L66.96 10.08L66.96 10.08Q67.65 9.23 68.42 8.76L68.42 8.76L68.42 8.76Q69.19 8.30 70.00 8.30L70.00 8.30L72.39 8.30L72.39 8.30Q73.40 8.30 74.28 8.20L74.28 8.20L74.28 8.20Q75.15 8.09 75.56 7.74L75.56 7.74L75.70 7.90L75.70 7.90Q75.25 8.57 74.47 9.04L74.47 9.04L74.47 9.04Q73.68 9.52 72.98 9.52L72.98 9.52L71.46 9.52ZM77.13 6.41L76.65 9.67L76.19 9.84L75.61 6.93L77.13 6.41ZM77.11 11.14L77.11 16.91L77.11 16.91Q77.11 17.12 77.22 17.26L77.22 17.26L77.22 17.26Q77.32 17.39 77.52 17.39L77.52 17.39L77.52 17.39Q77.67 17.39 77.86 17.25L77.86 17.25L77.86 17.25Q78.05 17.11 78.25 16.84L78.25 16.84L78.47 17.05L78.47 17.05Q78.15 17.65 77.69 17.91L77.69 17.91L77.69 17.91Q77.24 18.16 76.86 18.16L76.86 18.16L76.86 18.16Q76.36 18.16 76.08 17.84L76.08 17.84L76.08 17.84Q75.81 17.51 75.81 16.74L75.81 16.74L75.81 11.65L77.11 11.14ZM81.26 5.15L81.26 16.91L81.26 16.91Q81.26 17.08 81.35 17.23L81.35 17.23L81.35 17.23Q81.45 17.39 81.69 17.39L81.69 17.39L81.69 17.39Q81.89 17.39 82.10 17.21L82.10 17.21L82.10 17.21Q82.32 17.04 82.43 16.84L82.43 16.84L82.67 17.05L82.67 17.05Q82.43 17.51 82.01 17.84L82.01 17.84L82.01 17.84Q81.59 18.16 81.17 18.16L81.17 18.16L81.17 18.16Q80.00 18.16 80.00 16.74L80.00 16.74L80.00 5.68L81.26 5.15ZM85.44 5.15L85.44 16.91L85.44 16.91Q85.44 17.08 85.54 17.23L85.54 17.23L85.54 17.23Q85.64 17.39 85.88 17.39L85.88 17.39L85.88 17.39Q86.07 17.39 86.29 17.21L86.29 17.21L86.29 17.21Q86.51 17.04 86.62 16.84L86.62 16.84L86.86 17.05L86.86 17.05Q86.62 17.51 86.20 17.84L86.20 17.84L86.20 17.84Q85.78 18.16 85.36 18.16L85.36 18.16L85.36 18.16Q84.18 18.16 84.18 16.74L84.18 16.74L84.18 5.68L85.44 5.15ZM91.70 10.96L91.70 10.96Q92.46 10.96 92.96 11.37L92.96 11.37L92.96 11.37Q93.46 11.77 93.46 12.57L93.46 12.57L93.46 12.57Q93.46 13.22 92.77 14.01L92.77 14.01L92.77 14.01Q92.08 14.80 91.15 15.46L91.15 15.46L91.15 15.46Q90.22 16.11 89.56 16.38L89.56 16.38L89.56 16.38Q89.91 16.94 90.36 17.16L90.36 17.16L90.36 17.16Q90.80 17.37 91.41 17.37L91.41 17.37L91.41 17.37Q92.08 17.37 92.74 17.03L92.74 17.03L92.74 17.03Q93.41 16.69 93.84 16.14L93.84 16.14L94.01 16.44L94.01 16.44Q93.32 17.32 92.55 17.79L92.55 17.79L92.55 17.79Q91.78 18.26 90.66 18.26L90.66 18.26L90.66 18.26Q89.81 18.26 89.14 17.84L89.14 17.84L89.14 17.84Q88.47 17.42 88.09 16.71L88.09 16.71L88.09 16.71Q87.71 16.00 87.71 15.18L87.71 15.18L87.71 15.18Q87.71 14.14 88.27 13.16L88.27 13.16L88.27 13.16Q88.83 12.18 89.75 11.57L89.75 11.57L89.75 11.57Q90.68 10.96 91.70 10.96L91.70 10.96ZM90.97 11.84L90.97 11.84Q90.36 11.84 89.87 12.24L89.87 12.24L89.87 12.24Q89.39 12.63 89.12 13.24L89.12 13.24L89.12 13.24Q88.84 13.86 88.84 14.52L88.84 14.52L88.84 14.52Q88.84 15.39 89.25 16.00L89.25 16.00L89.25 16.00Q89.84 15.74 90.52 15.20L90.52 15.20L90.52 15.20Q91.21 14.66 91.69 14.03L91.69 14.03L91.69 14.03Q92.16 13.40 92.16 12.88L92.16 12.88L92.16 12.88Q92.16 11.84 90.97 11.84L90.97 11.84ZM98.25 12.80L98.25 12.80Q97.62 13.45 97.17 14.51L97.17 14.51L97.17 14.51Q96.71 15.57 96.71 16.44L96.71 16.44L96.71 16.44Q96.71 17.19 97.04 17.70L97.04 17.70L97.04 17.70Q97.37 18.21 98.10 18.21L98.10 18.21L98.10 18.21Q98.69 18.21 99.23 17.91L99.23 17.91L99.23 17.91Q99.76 17.60 100.14 17.11L100.14 17.11L99.99 16.90L99.99 16.90Q99.55 17.19 99.13 17.19L99.13 17.19L99.13 17.19Q98.48 17.19 98.14 16.73L98.14 16.73L98.14 16.73Q97.80 16.27 97.80 15.61L97.80 15.61L97.80 15.61Q97.80 14.55 98.35 13.59L98.35 13.59L98.35 13.59Q98.90 12.64 99.74 11.75L99.74 11.75L99.51 11.55L99.51 11.55Q98.53 12.17 97.72 12.17L97.72 12.17L97.72 12.17Q97.24 12.17 96.85 11.74L96.85 11.74L96.85 11.74Q96.46 11.31 96.25 10.79L96.25 10.79L95.12 12.07L95.12 12.07Q95.21 12.35 95.65 12.71L95.65 12.71L94.71 14.67L95.23 14.91L96.14 12.91L96.14 12.91Q96.38 13.01 96.53 13.03L96.53 13.03L96.53 13.03Q96.68 13.06 96.95 13.06L96.95 13.06L96.95 13.06Q97.64 13.06 98.21 12.75L98.21 12.75L98.25 12.80Z"></path></g><!----><!----></svg>